<svg width="512" height="442" viewBox="0 0 512 442" fill="none" xmlns="http://www.w3.org/2000/svg">
   <path
      d="M471.779 268.344C472.419 352.719 382.731 440.177 263.622 441.081C144.513 441.985 41.0886 355.992 40.4483 271.617C39.8081 187.242 135.293 45.33 254.402 44.4255C373.51 43.5221 471.138 183.969 471.779 268.344Z"
      fill="#F9E050" />
   <path
      d="M282.627 265.682C282.693 274.389 270.982 276.793 256.514 276.902C242.045 277.013 230.299 274.786 230.233 266.08C230.166 257.373 241.785 242.715 256.253 242.606C270.722 242.495 282.561 256.975 282.627 265.682Z"
      fill="#FBCF17" />
   <path
      d="M317.599 212.434C317.663 220.996 311.007 227.988 302.73 228.051C294.454 228.115 287.691 221.224 287.627 212.66C287.561 204.097 294.219 197.105 302.494 197.042C310.771 196.979 317.533 203.87 317.599 212.434Z"
      fill="#040606" />
   <path
      d="M221.954 213.158C222.018 221.721 215.362 228.714 207.085 228.777C198.809 228.839 192.046 221.949 191.982 213.386C191.917 204.823 198.574 197.83 206.851 197.767C215.126 197.705 221.888 204.596 221.954 213.158Z"
      fill="#040606" />
   <path
      d="M169.927 238.582C170.034 255.472 155.019 269.257 136.392 269.372C117.765 269.487 102.577 255.889 102.471 239C102.364 222.11 117.378 208.326 136.005 208.21C154.632 208.095 169.82 221.693 169.927 238.582Z"
      fill="#FABF76" />
   <path
      d="M409.272 237.17C409.379 254.059 394.364 267.845 375.737 267.96C357.11 268.075 341.923 254.477 341.815 237.588C341.71 220.698 356.723 206.914 375.35 206.799C393.978 206.683 409.165 220.281 409.272 237.17Z"
      fill="#FABF76" />
   <path
      d="M191.348 403.07C191.455 419.959 172.308 433.77 148.581 433.918C124.855 434.065 105.534 420.493 105.427 403.604C105.32 386.715 124.467 372.904 148.193 372.756C171.92 372.608 191.241 386.181 191.348 403.07Z"
      fill="#FBCF17" />
   <path
      d="M408.815 401.904C408.922 418.793 389.775 432.604 366.048 432.752C342.321 432.899 323.001 419.327 322.893 402.438C322.786 385.549 341.934 371.738 365.66 371.59C389.387 371.443 408.708 385.015 408.815 401.904Z"
      fill="#FBCF17" />
   <path d="M271.096 54.9851C271.102 55.7124 271.108 56.4397 271.113 57.167Z" fill="#F7C616" />
   <path
      d="M264.6 54.9847C264.606 55.712 264.612 56.4393 264.617 57.1666C264.63 58.8411 265.333 60.5742 266.52 61.7607C267.108 62.3948 267.805 62.8425 268.611 63.1037C269.385 63.5111 270.219 63.6975 271.114 63.6642C272.794 63.5882 274.536 63.037 275.708 61.7607C276.869 60.4948 277.624 58.9228 277.61 57.1666C277.604 56.4393 277.6 55.712 277.594 54.9847C277.581 53.3103 276.878 51.5771 275.69 50.3906C275.102 49.7565 274.405 49.3088 273.601 49.0476C272.826 48.6402 271.992 48.4538 271.096 48.4871C269.416 48.5631 267.674 49.1144 266.503 50.3906C265.341 51.6565 264.587 53.2285 264.6 54.9847Z"
      fill="#F7C616" />
   <path d="M271.147 61.5316C271.155 62.6237 271.163 63.7147 271.171 64.8057Z" fill="#F7C616" />
   <path
      d="M264.65 61.5319C264.659 62.624 264.667 63.715 264.675 64.8059C264.688 66.4804 265.391 68.2135 266.577 69.4C267.705 70.5267 269.553 71.3748 271.171 71.3023C272.851 71.2275 274.595 70.6751 275.765 69.4C276.928 68.1341 277.681 66.5621 277.669 64.8059C277.66 63.715 277.652 62.624 277.643 61.5319C277.631 59.8586 276.928 58.1254 275.741 56.9378C274.613 55.8111 272.765 54.963 271.147 55.0355C269.467 55.1103 267.723 55.6627 266.553 56.9378C265.391 58.2037 264.637 59.7769 264.65 61.5319Z"
      fill="#F7C616" />
   <path d="M271.188 66.9891C271.191 67.3528 271.193 67.7164 271.197 68.0801Z" fill="#F7C616" />
   <path
      d="M264.691 66.9887C264.694 67.3523 264.697 67.716 264.699 68.0797C264.666 68.9738 264.852 69.8082 265.259 70.5827C265.521 71.3883 265.969 72.0845 266.602 72.6737C267.191 73.3067 267.888 73.7544 268.693 74.0168C269.468 74.4242 270.302 74.6106 271.197 74.576C271.772 74.4989 272.347 74.4218 272.924 74.3447C274.024 74.0352 274.979 73.4781 275.791 72.6737C276.129 72.2353 276.467 71.7968 276.806 71.3584C277.394 70.3456 277.689 69.2523 277.693 68.0797C277.691 67.716 277.687 67.3523 277.685 66.9887C277.718 66.0933 277.532 65.259 277.126 64.4856C276.863 63.6801 276.415 62.9827 275.781 62.3946C275.193 61.7605 274.497 61.3128 273.691 61.0516C272.917 60.6442 272.083 60.4578 271.188 60.4912C270.612 60.5694 270.036 60.6465 269.461 60.7236C268.361 61.032 267.405 61.589 266.594 62.3946C266.256 62.8331 265.917 63.2715 265.578 63.7088C264.99 64.7227 264.694 65.816 264.691 66.9887Z"
      fill="#F7C616" />
   <path
      d="M81.3864 307.442C61.3349 321.8 40.2159 335.84 19.4017 312.527C12.7534 305.08 12.1549 295.386 21.6846 289.875C29.9819 285.077 41.2003 290.727 48.762 296.68C32.8962 291.795 2.52967 278.202 6.95238 256.146C11.0858 235.531 39.5054 247.666 45.2801 261.54C36.1665 252.178 9.65381 222.259 14.0082 205.853C17.1888 193.869 32.5196 198.246 42.0473 201.123C56.9745 205.63 64.0334 219.47 71.7702 232.052"
      fill="#F9E050" />
   <path
      d="M78.1074 301.834C71.8433 306.314 65.5142 310.808 58.6196 314.281C52.8919 317.167 46.7937 319.173 40.5181 318.294C41.0194 318.364 39.463 318.066 39.2278 318.012C38.3347 317.806 37.4537 317.552 36.5865 317.256C35.1665 316.771 33.8478 316.084 32.4781 315.265C29.1156 313.254 25.8165 310.375 23.4668 307.325C23.1218 306.878 22.7267 306.246 22.4064 305.699C22.1978 305.344 21.5038 303.931 21.614 304.212C21.3566 303.554 21.1637 302.848 21.0229 302.156C21.0212 302.148 20.888 301.05 20.936 301.651C20.9761 302.154 20.9594 300.929 20.9649 300.813C21.0023 300.052 20.9056 300.708 20.8869 300.865C20.939 300.43 21.0671 299.975 21.1867 299.552C21.4557 298.599 21.1066 299.456 21.6101 298.578C22.0715 297.772 22.9958 296.753 24.193 295.954C30.1277 291.995 38.9894 297.262 44.1682 301.274C46.2751 297.655 48.3822 294.036 50.4892 290.415C43.2817 288.177 38.3098 286.166 31.7387 282.516C30.0066 281.553 28.307 280.532 26.6538 279.439C25.8794 278.928 25.119 278.397 24.3643 277.858C23.488 277.23 23.6476 277.357 22.6876 276.558C21.2272 275.345 19.8317 274.052 18.537 272.662C16.938 270.945 16.8481 270.825 15.798 269.165C15.2962 268.372 14.848 267.553 14.4227 266.716C14.3503 266.575 13.8367 265.401 14.1174 266.085C14.3978 266.767 13.9433 265.575 13.8971 265.423C13.6577 264.632 13.4324 263.856 13.2431 263.051C13.2034 262.882 12.9894 261.613 13.0981 262.387C13.2087 263.173 13.0417 261.533 13.0347 261.378C12.9911 260.411 13.0169 259.44 13.1087 258.477C13.2136 257.374 12.9408 259.326 13.1548 258.21C13.2393 257.768 13.3304 257.329 13.4405 256.893C13.9874 254.731 13.7455 255.227 15.0062 253.382C14.1676 254.609 15.5684 252.905 15.8445 252.632C16.4784 252.003 14.9098 253.185 15.6872 252.769C15.9648 252.62 16.2452 252.445 16.5105 252.275C17.7043 251.511 15.781 252.319 17.1757 252.009C17.489 251.94 17.8106 251.852 18.1184 251.762C19.5309 251.341 17.8534 251.72 18.3569 251.691C19.0446 251.652 19.7203 251.617 20.4099 251.636C20.7609 251.646 21.1116 251.689 21.4619 251.697C22.4337 251.72 20.363 251.493 21.3367 251.66C23.0168 251.949 24.603 252.418 26.2225 252.939C26.3904 252.993 27.5229 253.43 26.7993 253.139C26.048 252.835 27.4932 253.454 27.6318 253.52C28.5222 253.943 29.3945 254.406 30.2458 254.904C31.0983 255.403 31.9306 255.937 32.7386 256.504C33.0598 256.73 33.3808 256.959 33.6918 257.198C32.9639 256.639 33.6306 257.158 33.971 257.463C35.3078 258.658 36.5989 259.883 37.724 261.286C36.8531 260.199 38.3051 262.188 38.5357 262.578C38.9648 263.301 39.3353 264.048 39.6704 264.819C43.0717 262.195 46.4728 259.571 49.8741 256.946C44.8274 251.748 39.6937 245.85 35.4992 240.406C32.9487 237.098 30.001 232.919 27.6095 229.051C26.4792 227.224 25.401 225.363 24.4014 223.461C23.289 221.343 22.5384 219.746 21.9833 218.282C21.3326 216.565 20.7727 214.808 20.3804 213.012C20.2784 212.545 20.1931 212.077 20.1094 211.606C19.922 210.554 20.1126 213.129 20.0973 211.415C20.0896 210.561 20.1206 209.64 20.0518 208.791C19.9258 207.233 19.8379 209.684 20.0157 208.775C20.0942 208.374 20.1683 207.976 20.2729 207.58C20.389 207.14 20.5189 206.657 20.7021 206.244C20.3148 207.118 20.8135 206.187 20.8869 206.062C21.866 204.406 20.4645 206.621 21.1244 205.739C21.3024 205.502 22.2695 204.608 21.3166 205.488C21.5048 205.314 22.0099 205.026 22.2819 204.923C20.9656 205.421 22.5589 204.832 22.8542 204.757C22.8073 204.77 24.6738 204.35 23.7331 204.516C22.7846 204.683 24.7543 204.436 24.6995 204.44C25.6631 204.389 26.6284 204.411 27.5909 204.472C28.1429 204.507 28.6943 204.555 29.2437 204.621C28.9457 204.585 28.1797 204.449 29.5231 204.672C30.7556 204.877 31.9788 205.133 33.1951 205.418C37.3205 206.387 41.5973 207.437 45.264 209.516C54.9821 215.027 60.4014 225.935 66.1605 235.331C70.5234 242.449 81.7662 235.929 77.3801 228.773C70.8877 218.181 64.7025 206.965 54.206 199.785C49.5069 196.571 44.07 194.809 38.6093 193.378C33.7421 192.103 28.5142 191.033 23.466 191.547C17.6464 192.141 12.2462 194.714 9.36246 200.047C6.85229 204.69 6.69808 209.974 7.58007 215.061C9.30031 224.982 15.1387 234.266 20.8747 242.347C26.843 250.755 33.5036 258.736 40.6863 266.134C42.9222 268.437 46.7434 268.612 49.2167 266.642C51.9415 264.471 52.2206 261.324 50.89 258.261C47.6708 250.852 40.3593 245.018 33.1207 241.814C25.4731 238.43 15.8334 236.786 8.53698 241.965C0.39412 247.744 -1.6708 259.459 1.26943 268.587C4.3137 278.037 11.7495 285.085 19.8045 290.466C28.0918 296.003 37.5412 299.996 47.035 302.945C49.7679 303.794 52.9548 302.383 54.3718 299.959C55.6992 297.69 55.5965 293.823 53.356 292.086C45.1139 285.699 34.6228 279.686 23.7867 282.14C13.4582 284.478 6.48587 294.531 8.36539 304.925C10.1662 314.884 19.7803 323.728 28.5614 327.9C37.3314 332.067 46.9714 332.376 56.1574 329.313C66.632 325.821 75.7683 319.417 84.6659 313.053C87.5153 311.014 88.8836 307.39 86.9963 304.164C85.3495 301.348 80.9762 299.781 78.1074 301.834Z"
      fill="#F9E050" />
   <path
      d="M431.388 304.786C451.655 318.838 472.985 332.557 493.443 308.929C499.977 301.383 500.428 291.681 490.817 286.316C482.448 281.645 471.316 287.463 463.845 293.53C479.635 288.405 509.792 274.353 505.035 252.365C500.589 231.816 472.357 244.382 466.793 258.342C475.764 248.842 501.819 218.523 497.216 202.186C493.855 190.252 478.592 194.861 469.109 197.882C454.253 202.617 447.404 216.561 439.859 229.259"
      fill="#F9E050" />
   <path
      d="M428.11 310.397C442.813 320.58 461.561 333.267 480.257 326.286C490.087 322.616 499.919 314.427 503.532 304.352C506.998 294.689 502.148 284.43 492.971 280.154C481.122 274.635 468.492 281.548 459.252 288.936C454.126 293.034 459.667 301.729 465.572 299.795C473.945 297.054 482.205 293.501 489.696 288.843C497.921 283.728 505.842 277 509.706 267.901C513.419 259.159 512.94 247.469 505.935 240.402C499.652 234.064 489.774 234 481.899 237.052C472.551 240.676 464.438 247.231 460.529 256.614C457.965 262.768 467.203 267.379 471.387 262.936C477.624 256.314 483.418 249.239 488.742 241.866C494.694 233.62 500.507 224.471 503.105 214.53C505.773 204.321 503.439 192.082 491.992 188.751C486.867 187.259 481.241 188.009 476.132 189.145C470.79 190.334 465.267 191.96 460.437 194.555C447.973 201.251 441.177 214.282 434.249 225.98C429.979 233.191 441.206 239.735 445.469 232.538C450.505 224.035 455.163 214.446 462.96 208.348C466.49 205.587 470.676 204.12 475.022 202.861C476.969 202.297 478.933 201.784 480.922 201.395C481.367 201.307 481.813 201.227 482.26 201.152C484.383 200.796 481.614 201.191 482.859 201.071C484.038 200.958 485.221 200.892 486.407 200.935C486.816 200.952 487.234 200.972 487.642 201.018C486.378 200.877 487.658 201.034 487.975 201.132C488.437 201.273 488.905 201.37 489.357 201.544C489.128 201.456 488.208 201.071 489.34 201.594C490.938 202.333 488.667 201.235 489.618 201.719C489.863 201.845 490.7 202.869 489.955 201.91C490.199 202.224 490.419 202.61 490.605 202.954C491.358 204.343 490.511 202.239 490.953 203.914C491.057 204.309 491.137 204.707 491.228 205.105C491.438 206.029 491.274 203.533 491.218 205.118C491.194 205.81 491.271 206.509 491.243 207.204C491.223 207.657 491.182 208.106 491.139 208.557C491.039 209.629 491.498 207.015 491.089 208.778C490.867 209.742 490.683 210.707 490.417 211.661C488.275 219.329 483.285 227.218 478.161 234.415C473.497 240.968 468.119 247.462 462.199 253.748C465.82 255.855 469.439 257.962 473.058 260.068C472.443 261.546 473.285 259.745 473.504 259.361C473.852 258.753 474.243 258.17 474.643 257.594C475.332 256.603 474.773 257.427 474.619 257.614C474.915 257.258 475.216 256.907 475.527 256.564C476.1 255.932 476.702 255.326 477.326 254.744C477.893 254.216 478.482 253.71 479.085 253.223C478.197 253.94 479.808 252.713 480.142 252.488C481.617 251.491 483.165 250.629 484.763 249.849C485.89 249.299 485.066 249.691 484.815 249.796C485.17 249.647 485.532 249.509 485.894 249.377C486.607 249.117 487.33 248.881 488.061 248.677C488.775 248.478 489.505 248.357 490.222 248.173C491.399 247.872 490.375 248.137 490.096 248.165C490.622 248.113 491.146 248.066 491.673 248.05C492.358 248.029 493.035 248.083 493.718 248.104C492.124 248.057 493.884 248.149 494.422 248.293C495.041 248.459 496.283 249.185 495.122 248.48C495.642 248.796 497.226 250.13 496.208 249.077C496.506 249.386 497.734 250.795 496.89 249.64C497.321 250.23 497.687 250.865 498.019 251.516C498.58 252.621 498.147 251.842 498.06 251.598C498.203 251.994 498.332 252.396 498.448 252.799C498.57 253.226 498.676 253.659 498.77 254.093C498.783 254.147 499.061 256.187 498.95 255.018C499.031 255.872 499.058 256.734 499.032 257.591C499.02 258.012 498.992 258.43 498.956 258.848C498.98 258.575 499.179 257.667 498.936 258.968C498.785 259.776 498.592 260.574 498.351 261.36C498.231 261.752 498.098 262.14 497.96 262.525C497.306 264.336 498.511 261.515 497.642 263.244C494.576 269.349 489.392 273.694 483.434 277.437C479.75 279.75 475.878 281.76 471.911 283.541C471.513 283.72 471.114 283.895 470.713 284.07C470.084 284.346 471.241 283.861 470.202 284.288C469.256 284.677 468.304 285.055 467.348 285.419C465.621 286.078 463.876 286.69 462.119 287.265C464.226 290.886 466.332 294.505 468.439 298.124C473.047 294.441 480.687 289.608 486.423 291.466C487.509 291.818 488.719 292.536 489.656 293.379C489.852 293.555 490.84 294.667 490.591 294.33C490.798 294.611 490.977 294.931 491.142 295.237C491.672 296.215 490.951 294.55 491.325 295.567C492.086 297.64 491.797 299.54 490.575 301.728C487.287 307.611 480.642 312.895 474.174 314.589C468.594 316.051 462.655 314.885 456.969 312.535C448.978 309.232 441.738 304.074 434.667 299.177C431.782 297.179 427.454 298.645 425.778 301.508C423.89 304.737 425.217 308.393 428.11 310.397Z"
      fill="#F9E050" />
   <path
      d="M209.197 80.1008C197.704 58.2813 161.031 42.6209 186.962 25.1745C195.245 19.6022 217.169 13.8136 221.33 24.0041C224.954 32.8781 231.23 42.5657 224.302 49.2462C231.302 34.1935 241.609 0.116553 262.859 7.50136C282.718 14.4028 274.12 46.7501 259.589 50.5823C270.105 42.8281 303.356 20.6357 319.015 27.1838C330.454 31.9667 324.031 46.559 319.883 55.6056C313.384 69.7803 298.714 74.8888 285.195 80.8408"
      fill="#F36820" />
   <path
      d="M214.808 76.8218C210.498 68.8167 203.928 62.2478 197.571 55.8619C194.658 52.9365 191.715 50.0238 189.038 46.8763C188.773 46.5644 188.513 46.2468 188.25 45.9315C187.012 44.4446 188.655 46.5092 187.979 45.6012C187.468 44.9176 186.974 44.2214 186.514 43.5021C186.127 42.8991 185.757 42.2834 185.421 41.6493C185.219 41.2707 185.034 40.8852 184.851 40.4962C184.639 40.0474 185.131 41.586 184.785 40.2096C184.611 39.5191 184.412 38.8516 184.284 38.1496C184.61 39.9415 184.402 37.8965 184.406 37.3637C184.413 36.5397 183.855 38.7918 184.412 37.4925C184.51 37.2624 184.627 36.7974 184.664 36.5788C184.841 35.5591 184.707 36.4672 184.556 36.7595C184.798 36.2934 185.042 35.8365 185.311 35.3865C185.296 35.4119 186.336 33.9848 185.79 34.6661C185.304 35.2726 186.143 34.2921 186.258 34.1735C186.964 33.4508 187.672 32.742 188.449 32.0952C189.559 31.1699 191.292 30.064 192.904 29.225C193.592 28.8671 194.295 28.5357 195.003 28.2181C194.076 28.6347 196.594 27.6059 196.968 27.4724C198.866 26.798 200.804 26.2283 202.768 25.7749C203.868 25.5217 204.978 25.2996 206.095 25.1281C205.079 25.2835 207.27 25.0107 207.654 24.9843C208.704 24.9106 209.759 24.883 210.811 24.9233C211.215 24.9383 211.615 24.9751 212.018 24.9981C213.65 25.0925 211.088 24.6022 212.576 25.1017C213.138 25.2904 215.306 26.1708 214.045 25.4595C214.275 25.5896 214.653 25.8497 214.919 25.9452C216.189 26.4021 214.193 25.341 215.124 26.1397C216.23 27.088 214.737 25.3962 215.151 26.1638C215.739 27.256 215.148 26.0165 215.741 27.3411C216.482 29.0006 217.192 30.6751 217.934 32.3357C219.04 34.81 220.129 37.3291 220.709 39.9898C221.158 42.0463 221.143 43.1614 219.708 44.6518C223.11 47.2768 226.51 49.9007 229.912 52.5245C233.38 45.012 235.199 39.6664 238.878 32.1711C240.661 28.5403 242.607 24.9716 244.912 21.6435C245.09 21.3857 246.589 19.3947 245.942 20.2026C246.446 19.5731 246.967 18.9586 247.509 18.3625C248.101 17.7122 248.715 17.085 249.358 16.4866C249.705 16.1621 250.062 15.8491 250.423 15.5407C251.462 14.6534 249.638 15.9987 250.874 15.2057C251.483 14.8145 252.091 14.4336 252.718 14.0711C252.732 14.0619 254.298 13.3046 253.378 13.7086C252.602 14.0492 253.632 13.613 253.831 13.5555C254.597 13.3345 255.345 13.1274 256.127 12.9628C254.631 13.2781 257.043 12.9663 257.631 12.9743C259.648 13.0008 262.927 14.3426 264.47 15.8191C264.78 16.1149 266.201 17.878 265.394 16.7433C265.863 17.4027 266.237 18.1001 266.643 18.7963C266.743 18.9689 267.21 20.007 266.879 19.2348C266.487 18.3256 267.122 19.9587 267.125 19.969C267.391 20.8436 267.56 21.7355 267.802 22.6124C268.119 23.7644 267.856 22.8253 267.821 22.5296C267.865 22.8979 267.904 23.273 267.926 23.6435C267.981 24.5884 268.009 25.5275 267.979 26.4734C267.955 27.2387 267.888 27.9994 267.815 28.7613C267.944 27.4114 267.827 28.6899 267.759 29.0363C267.667 29.5104 267.582 29.9857 267.477 30.4576C267.247 31.4945 266.965 32.5187 266.636 33.5291C266.487 33.986 266.322 34.4371 266.161 34.8894C265.751 36.0437 266.361 34.5096 266.055 35.1909C265.255 36.9712 264.295 38.6549 263.18 40.2568C262.486 41.2557 263.073 40.4018 263.226 40.2154C262.895 40.617 262.555 41.0129 262.197 41.3938C261.619 42.0095 260.995 42.5665 260.362 43.1246C261.523 42.1016 259.71 43.4987 259.296 43.7507C259.211 43.8013 257.828 44.4711 258.815 44.0361C259.752 43.6218 258.054 44.2617 257.862 44.3169C259.531 48.2746 261.199 52.2334 262.868 56.1911C268.879 51.7719 275.154 47.6899 281.618 43.967C289.575 39.3845 296.877 35.6109 305.543 33.4428C306.47 33.2115 307.404 33.002 308.344 32.8283C308.271 32.8421 310.266 32.5279 309.292 32.6579C308.342 32.7857 310.246 32.5728 310.198 32.5762C310.952 32.5176 311.71 32.483 312.467 32.4876C312.922 32.491 313.375 32.5279 313.83 32.536C314.096 32.5521 314.362 32.5739 314.626 32.6027C313.851 32.4876 313.704 32.4715 314.187 32.5544C314.928 32.7086 315.654 32.8743 316.375 33.1045C317.88 33.5855 315.586 32.7765 316.732 33.2621C316.941 33.3507 318.201 34.1391 317.387 33.5314C317.707 33.7708 318.021 34.0965 318.289 34.383C317.577 33.6235 318.2 34.3013 318.349 34.4854C319.358 35.7283 318.256 33.9342 318.555 34.7777C318.656 35.062 319.073 37.0471 318.892 35.6639C319.174 37.8182 318.904 39.0968 318.621 40.3995C318.121 42.6942 317.372 44.9314 316.529 47.1203C315.81 48.9846 315.496 49.6648 314.531 51.7662C313.534 53.932 312.279 56.2647 310.898 58.0162C303.929 66.8591 292.025 70.7973 281.916 75.2302C278.702 76.64 277.96 81.3399 279.586 84.1191C281.525 87.4346 285.248 87.865 288.474 86.4495C299.282 81.7093 310.887 77.3604 319.036 68.4151C323.221 63.821 325.783 58.5169 328.14 52.8422C330.158 47.9846 331.884 42.8484 331.962 37.5294C332.137 25.6264 321.85 18.8884 310.774 19.5432C300.437 20.1531 290.532 24.5401 281.461 29.2412C272.686 33.788 264.271 39.1186 256.311 44.9717C253.705 46.8867 252.26 49.9179 253.652 53.085C254.932 55.9954 258.138 57.7504 261.317 56.8459C278.63 51.9181 286.137 25.9993 277.343 11.3045C272.192 2.69749 261.373 -1.76306 251.638 0.652506C242.308 2.96911 235.731 11.2769 231.095 19.1749C228.421 23.731 226.2 28.5414 224.102 33.3852C223.021 35.8814 221.975 38.3913 220.918 40.8967C220.477 41.9439 221.505 39.5249 220.79 41.2005C220.538 41.7897 220.287 42.3789 220.032 42.9658C219.596 43.9705 219.152 44.9717 218.693 45.9672C217.337 48.904 217.616 52.2921 220.366 54.3474C222.896 56.2382 226.608 56.2164 228.896 53.8399C234.206 48.3241 234.842 41.1383 232.546 34.0711C231.435 30.6463 229.857 27.3665 228.393 24.0832C227.244 21.5088 226.315 19.0184 224.311 16.9515C216.983 9.39064 203.653 11.6037 194.761 14.5175C185.516 17.5465 174.779 23.4917 171.998 33.582C169.379 43.0867 175.712 51.5993 181.747 58.2084C189.419 66.6082 198.436 73.8089 203.587 83.3803C207.553 90.7455 218.774 84.1916 214.808 76.8218Z"
      fill="#F36820" />
   <path
      d="M215.021 79.53C216.976 78.546 220.214 80.2665 222.379 80.5565C225.619 80.9903 228.889 80.8798 232.185 80.8545C238.222 80.8085 244.311 80.9777 250.341 80.7164C261.194 80.248 274.002 77.2835 284.869 79.7267"
      fill="#F36820" />
   <path
      d="M216.749 85.7937C216.564 85.8593 216.289 85.6752 216.106 85.6464C216.64 85.7293 217.17 85.9054 217.689 86.0504C218.977 86.4106 220.189 86.7524 221.516 86.9377C224.701 87.3807 227.876 87.3899 231.087 87.3612C237.503 87.3036 243.929 87.505 250.341 87.2127C261.136 86.7224 272.397 83.7372 283.143 85.9917C286.574 86.711 290.164 84.9847 291.135 81.454C292.021 78.2283 290.047 74.1854 286.597 73.4627C274.449 70.9136 262.518 73.6675 250.341 74.2199C243.748 74.5191 237.138 74.3132 230.539 74.3742C227.827 74.3995 224.945 74.6078 222.314 73.8678C219.374 73.0404 216.301 72.2106 213.295 73.2648C209.984 74.4248 207.782 77.7081 208.758 81.2561C209.639 84.4669 213.422 86.9595 216.749 85.7937Z"
      fill="#F36820" />
   <path
      d="M300.575 75.8646C279.295 84.6419 257.476 85.6971 231.724 85.6246C225.657 85.6074 217.711 85.0676 212.09 82.377"
      fill="#F36820" />
   <path
      d="M300.575 72.9684C297.349 71.9189 293.114 72.6266 289.768 73.0317C286.029 73.484 282.354 74.5048 278.615 75.0226C271.926 75.9479 264.565 76.1666 257.612 76.4773C249.71 76.8306 241.795 76.6752 233.892 76.4497C232.161 76.4013 230.43 76.3519 228.701 76.2437C227.942 76.1965 227.183 76.1424 226.426 76.0733C226.096 76.0434 223.564 75.7362 225.204 75.9732C223.337 75.7028 221.519 75.2712 219.687 74.8316C218.26 74.4887 216.816 74.354 215.361 74.1642C217.589 74.4553 213.759 73.9156 212.871 73.995C205.149 74.6774 201.58 82.961 206.692 88.9096C210.287 93.0928 216.133 93.8765 221.27 94.4646C224.925 94.8835 228.593 94.9422 232.267 94.8501C240.724 94.6384 249.184 94.2483 257.612 93.5117C265.708 92.804 273.708 91.362 281.548 89.2215C285.401 88.1696 289.432 87.0879 293.056 85.3904C296.424 83.8126 300.783 81.2555 302.595 77.9388C303.678 75.9571 302.683 73.6555 300.575 72.9684Z"
      fill="#F36820" />
</svg>