<svg width="400" height="512" viewBox="0 0 400 512" fill="none" xmlns="http://www.w3.org/2000/svg">
<path d="M74.7512 110.055L62.7383 136.235L76.1553 160.594L69.4468 197.331L106.438 231.67L161.154 259.382L211.499 254.001L216.278 283.687L269.959 263.084L285.402 275.807C285.402 275.807 280.361 309.023 289.625 307.823C298.889 306.623 356.659 303.683 356.659 303.683L374.524 294.646L358.833 147.13L299.351 71.3513L172.351 65.8955L74.7512 110.055Z" fill="#E2DAF1"/>
<path d="M299.436 69.3793L299.649 69.3999C300.143 69.4752 300.593 69.736 300.905 70.1331L360.387 145.912L360.543 146.141C360.681 146.38 360.768 146.646 360.798 146.923L376.488 294.438C376.575 295.254 376.148 296.041 375.415 296.411L357.551 305.448C357.366 305.541 357.168 305.605 356.964 305.637L356.759 305.659H356.748C356.741 305.659 356.731 305.659 356.717 305.66C356.69 305.661 356.648 305.663 356.594 305.666C356.484 305.672 356.321 305.68 356.109 305.691C355.684 305.713 355.059 305.746 354.261 305.787C352.663 305.87 350.372 305.989 347.592 306.136C342.033 306.43 334.525 306.836 326.728 307.278C311.079 308.166 294.419 309.196 289.878 309.784C288.045 310.021 286.495 309.367 285.347 308.15C284.282 307.022 283.608 305.47 283.155 303.864C282.244 300.634 282.012 296.359 282.064 292.242C282.116 288.081 282.463 283.9 282.795 280.772C282.961 279.205 283.123 277.895 283.245 276.975C283.261 276.853 283.277 276.738 283.291 276.63L269.592 265.342L216.986 285.533C216.43 285.746 215.808 285.697 215.292 285.4C214.776 285.103 214.422 284.589 214.327 284.002L209.846 256.166L161.364 261.348C160.985 261.389 160.602 261.319 160.261 261.146L105.545 233.435C105.38 233.352 105.228 233.245 105.093 233.12L68.1023 198.781C67.6078 198.322 67.3818 197.642 67.5029 196.978L74.0838 160.932L61.0082 137.191C60.7061 136.642 60.6814 135.982 60.9426 135.413L72.9557 109.232L73.0367 109.074C73.2425 108.715 73.5573 108.428 73.9371 108.256L171.536 64.0976C171.818 63.9701 172.126 63.9094 172.435 63.9227L299.436 69.3793ZM76.2384 111.552L64.9483 136.156L77.8862 159.642C78.1056 160.041 78.18 160.503 78.0984 160.95L71.5844 196.622L107.576 230.034L161.525 257.356L211.289 252.038C212.333 251.926 213.283 252.651 213.45 253.688L217.841 280.971L269.251 261.242L269.504 261.163C270.1 261.022 270.735 261.165 271.215 261.561L286.659 274.284C287.195 274.726 287.46 275.418 287.356 276.105V276.106L287.355 276.109C287.354 276.112 287.353 276.118 287.352 276.126C287.35 276.14 287.347 276.163 287.343 276.193C287.334 276.252 287.32 276.342 287.303 276.46C287.269 276.697 287.221 277.047 287.162 277.493C287.044 278.385 286.886 279.661 286.724 281.189C286.4 284.251 286.066 288.299 286.016 292.291C285.965 296.328 286.209 300.133 286.958 302.793C287.336 304.131 287.787 304.978 288.22 305.437C288.569 305.807 288.89 305.928 289.372 305.866C294.095 305.254 310.953 304.214 326.504 303.332C334.307 302.889 341.82 302.484 347.383 302.189C350.164 302.042 352.458 301.923 354.056 301.841C354.855 301.799 355.481 301.767 355.907 301.746C355.992 301.741 356.07 301.736 356.139 301.733L372.413 293.5L356.928 147.906L298.358 73.2872L172.732 67.891L76.2384 111.552Z" fill="black"/>
<path d="M374.525 294.647C395.049 241.453 401.743 182.993 393.776 126.536C389.228 94.3057 379.258 61.4652 356.88 37.8281C331.989 11.5354 294.044 -0.0388017 257.911 2.26103C221.779 4.56086 187.372 19.5374 157.275 39.6616C127.179 59.7858 100.878 84.9904 74.7515 110.055C108.862 97.6882 142.764 92.5261 179.02 91.1049C183.22 100.215 188.721 108.745 192.922 117.855C201.682 118.069 211.254 118.292 220.015 118.507C225.873 127.329 231.186 136.324 237.044 145.147C245.802 141.996 254.355 138.961 263.113 135.811C274.587 151.986 289.313 168.41 300.789 184.585C298.806 191.973 295.532 197.014 293.549 204.403C315.217 214.507 334.518 228.423 349.471 247.079C352.973 243.575 356.299 242.317 359.803 238.813C363.846 255.668 370.484 277.793 374.525 294.647Z" fill="white"/>
<path d="M257.786 0.289216C294.374 -2.03945 332.938 9.66462 358.315 36.4698C381.109 60.5468 391.163 93.874 395.733 126.261C403.746 183.05 397.013 241.85 376.368 295.358C376.057 296.165 375.257 296.676 374.394 296.618C373.531 296.561 372.805 295.948 372.603 295.107C370.592 286.717 367.931 277.006 365.258 267.253C362.919 258.714 360.571 250.143 358.66 242.455C357.663 243.241 356.695 243.92 355.767 244.567C354.054 245.761 352.481 246.863 350.868 248.476C350.471 248.873 349.923 249.082 349.362 249.051C348.801 249.02 348.28 248.752 347.929 248.314C333.199 229.937 314.159 216.194 292.713 206.193C291.844 205.788 291.392 204.817 291.64 203.891C292.672 200.047 294.039 196.823 295.349 193.725C296.555 190.873 297.713 188.126 298.63 184.964C293.065 177.184 286.759 169.336 280.41 161.435C274.194 153.701 267.937 145.916 262.373 138.173C258.47 139.575 254.606 140.959 250.743 142.34C246.415 143.886 242.089 145.432 237.712 147.007C236.856 147.314 235.9 146.998 235.397 146.24C232.452 141.804 229.646 137.327 226.856 132.876C224.242 128.708 221.64 124.563 218.932 120.455C214.868 120.356 210.645 120.257 206.421 120.156C201.838 120.046 197.253 119.938 192.872 119.83C192.119 119.812 191.442 119.366 191.127 118.682C189.061 114.201 186.671 109.852 184.24 105.432C182.03 101.415 179.789 97.3363 177.791 93.1338C142.173 94.6216 108.887 99.781 75.4252 111.913C74.5476 112.231 73.5668 111.891 73.0738 111.099C72.5809 110.306 72.7101 109.277 73.3838 108.63C99.4895 83.5854 125.912 58.2565 156.177 38.0198C186.457 17.7733 221.197 2.6181 257.786 0.289216ZM355.445 39.1865C331.039 13.4066 293.715 1.96228 258.036 4.2331C222.361 6.50388 188.287 21.3019 158.373 41.3038C130.925 59.657 106.634 82.2762 82.6248 105.25C114.105 94.9126 145.562 90.4393 178.943 89.1308H179.091C179.831 89.1572 180.5 89.5978 180.814 90.2782C182.88 94.7585 185.27 99.1073 187.701 103.527C189.925 107.571 192.179 111.677 194.187 115.908C198.195 116.006 202.355 116.106 206.515 116.205C211.098 116.315 215.682 116.424 220.063 116.531C220.707 116.547 221.304 116.876 221.66 117.413C224.606 121.849 227.412 126.326 230.203 130.777C232.724 134.798 235.234 138.798 237.838 142.763C241.722 141.368 245.568 139.992 249.413 138.618C253.741 137.072 258.067 135.526 262.443 133.952L262.602 133.903C263.394 133.69 264.243 133.99 264.724 134.668C270.421 142.698 276.933 150.801 283.49 158.96C290.033 167.1 296.621 175.297 302.399 183.442C302.74 183.922 302.849 184.529 302.696 185.097C301.665 188.941 300.298 192.165 298.988 195.263C297.87 197.906 296.795 200.46 295.914 203.336C316.551 213.181 335.056 226.529 349.676 244.204C351.002 243.071 352.289 242.174 353.507 241.325C355.219 240.131 356.793 239.03 358.406 237.416L358.606 237.241C359.095 236.868 359.737 236.742 360.34 236.912C361.028 237.106 361.557 237.657 361.724 238.353C363.736 246.743 366.397 256.455 369.07 266.208C371.108 273.645 373.151 281.107 374.907 287.988C393.558 236.716 399.443 180.84 391.82 126.812C387.294 94.738 377.407 62.3838 355.445 39.1865Z" fill="black"/>
<path d="M308.246 41.8162C308.495 40.7541 309.558 40.0956 310.62 40.3446C311.683 40.5937 312.342 41.6568 312.093 42.7192L306.553 66.3516C306.344 67.2449 305.546 67.8772 304.629 67.8772H271.782L265.079 136.008C264.972 137.093 264.005 137.887 262.919 137.78C261.833 137.673 261.039 136.706 261.146 135.62L268.025 65.7072L268.052 65.5206C268.231 64.6028 269.038 63.9258 269.99 63.9256H303.063L308.246 41.8162Z" fill="black"/>
<path d="M253.176 69.5969C254.147 69.0991 255.338 69.4828 255.836 70.4536L268.738 95.6078C269.236 96.5787 268.852 97.7699 267.881 98.2679C266.91 98.7659 265.719 98.3821 265.221 97.4112L252.319 72.2571C251.821 71.2862 252.205 70.0949 253.176 69.5969Z" fill="black"/>
<path d="M288.122 64.6146C288.831 63.7844 290.078 63.6853 290.909 64.3933L312.048 82.4264C312.878 83.1344 312.977 84.3811 312.269 85.2113C311.561 86.0415 310.313 86.1407 309.483 85.4325L288.344 67.4008C287.514 66.6927 287.414 65.4448 288.122 64.6146Z" fill="black"/>
<path d="M350.481 214.226C347.139 207.158 341.925 199.367 334.107 199.222C326.395 199.078 320.575 207.155 320.284 214.865C320.226 216.418 320.333 217.951 320.562 219.466C318.553 217.95 316.237 216.868 313.731 216.46C304.749 214.999 295.356 222.001 293.915 230.987C292.474 239.973 298.961 249.424 307.8 251.592C297.897 276.499 265.872 290.738 239.528 285.795C250.145 283.496 254.964 271.977 257.435 261.399C259.906 250.82 255.794 238.988 247.294 232.223C258.357 210.613 254.528 184.171 241.865 163.46C229.201 142.747 205.345 129.37 181.068 129.368C184.522 124.461 188.069 119.337 189.08 113.423C190.092 107.509 187.779 100.566 182.272 98.1831C176.765 95.799 168.702 108.945 170.13 114.773C162.549 103.2 153.88 92.344 144.271 82.3912C140.622 78.6108 136.718 74.8805 131.885 72.8191C127.052 70.7577 121.058 70.6681 116.887 73.8623C111.489 77.997 110.914 86.2941 113.73 92.4823C116.547 98.6705 121.935 103.241 127.155 107.597C121.529 103.997 113.661 101.492 107.012 100.86C100.363 100.227 92.8062 103.746 91.2045 110.229C89.2405 118.18 96.8948 125.419 104.644 128.07C87.27 131.923 67.3526 147.013 57.5025 161.833C47.6512 176.654 43.7931 195.337 46.9676 212.848C36.8844 217.569 27.1687 226.168 26.5417 237.283C25.9147 248.399 31.8 259.647 41.2891 265.469C25.6974 318.527 39.2119 379.019 77.0472 419.353C114.267 459.033 172.36 477.505 225.898 467.838C279.435 458.171 327.002 421.108 350.612 372.094C374.224 323.083 373.735 263.41 350.481 214.226Z" fill="#FFD54F"/>
<path d="M78.1999 154.293C77.4979 154.977 76.8116 155.679 76.1556 156.418C76.9631 155.879 77.6191 155.139 78.1999 154.293Z" fill="#FFD54F"/>
<path d="M361.884 245.617C358.251 255.804 352.289 264.952 344.397 271.793C338.627 277.561 334.302 268.908 328.532 264.582C305.458 300.637 257.867 306.405 220.37 293.425C231.908 289.098 239.118 276.12 239.118 264.582C221.813 276.12 201.621 279.004 184.316 287.657C190.084 281.888 192.969 274.677 198.738 268.909C178.548 271.794 161.241 284.774 141.051 287.657C149.704 283.33 161.241 280.447 165.568 268.909C128.071 299.194 76.1539 289.099 51.6368 248.719C53.0791 258.814 57.4062 268.909 66.0589 274.679C52.9329 268.712 39.8163 260.76 29.9583 249.209C29.9399 250.704 30.04 252.194 30.2889 253.656C32.8654 258.46 36.6418 262.621 41.2928 265.474C25.7011 318.532 39.2156 379.025 77.0509 419.359C114.271 459.038 172.364 477.51 225.901 467.843C279.439 458.176 327.006 421.113 350.615 372.099C369.384 333.131 372.906 287.43 361.884 245.617Z" fill="#FFC12E"/>
<path d="M83.9753 145.929C85.1832 145.532 86.4174 145.175 87.6925 144.881C86.1593 144.88 84.9659 145.287 83.9753 145.929Z" fill="#FFD54F"/>
<path d="M32.8906 237.181C38.6586 225.643 51.6383 214.106 66.0603 218.433C50.1973 212.664 47.3126 196.801 51.6383 182.379C57.0151 166.249 67.4091 151.382 83.9756 145.932C84.9674 145.289 86.1608 144.883 87.6927 144.883C86.419 145.177 85.1834 145.535 83.9756 145.932C81.1699 147.749 80.0714 151.571 78.1997 154.296C89.8279 142.975 107.426 139.195 123.746 140.556C116.535 131.903 102.119 121.349 101.039 114.864C110.142 109.263 129.514 111.712 141.051 116.039C130.956 108.829 122.383 92.1095 122.383 79.1298C141.13 83.4568 162.684 104.502 165.568 124.692C167.011 118.922 175.775 115.269 181.545 112.384C182.987 122.479 178.656 129.617 171.338 140.556C192.97 133.346 214.602 154.978 230.467 169.399C230.467 162.189 223.256 157.862 223.256 150.651C240.562 172.284 262.194 214.106 234.794 234.296C249.166 236.691 256.567 254.996 255.362 268.57C256.196 266.208 256.881 263.782 257.438 261.399C259.909 250.82 255.797 238.988 247.297 232.223C258.36 210.613 254.531 184.171 241.867 163.46C229.204 142.747 205.348 129.37 181.07 129.368C184.524 124.461 188.071 119.337 189.083 113.423C190.095 107.509 187.782 100.566 182.274 98.1831C176.767 95.799 168.705 108.946 170.132 114.773C162.552 103.2 153.882 92.3427 144.273 82.3912C140.624 78.6108 136.72 74.8805 131.887 72.8191C127.055 70.7577 121.06 70.6681 116.89 73.8623C111.492 77.997 110.916 86.2941 113.732 92.4823C116.55 98.6705 121.937 103.241 127.157 107.597C121.532 103.997 113.664 101.492 107.015 100.86C100.366 100.227 92.8087 103.746 91.207 110.23C89.2431 118.181 96.8973 125.42 104.646 128.072C87.2725 131.925 67.3551 147.014 57.5051 161.834C47.6537 176.655 43.7957 195.34 46.9701 212.849C36.8869 217.57 27.1713 226.169 26.5443 237.285C26.2242 242.954 27.6059 248.652 30.2891 253.652C29.3499 248.125 30.3931 242.174 32.8906 237.181Z" fill="#FFE79F"/>
<path d="M115.686 72.2938C120.602 68.5287 127.412 68.7633 132.661 71.0023C137.897 73.2362 142.044 77.2381 145.693 81.019L147.499 82.9125C155.206 91.0858 162.291 99.8433 168.679 109.084C168.709 108.985 168.737 108.886 168.768 108.788C169.471 106.578 170.605 104.292 171.966 102.288C173.317 100.301 174.969 98.476 176.768 97.2975C178.548 96.1307 180.813 95.399 183.057 96.37L183.668 96.6543C189.852 99.7489 192.095 107.52 191.028 113.756C190.151 118.886 187.528 123.412 184.771 127.494C208.431 128.775 231.172 142.184 243.55 162.429C256.204 183.125 260.33 209.612 249.749 231.709C258.01 239.074 261.882 251.047 259.359 261.848C258.102 267.231 256.217 272.999 253.205 277.758C251.499 280.455 249.402 282.867 246.826 284.691C257.605 285.319 268.951 282.947 278.971 278.108C290.493 272.542 300.108 263.793 305.124 252.82C296.479 249.514 290.479 239.942 291.965 230.674C293.548 220.803 303.63 213.111 313.575 214.44L314.049 214.509V214.51C315.539 214.753 316.96 215.204 318.295 215.816C318.293 215.476 318.298 215.134 318.31 214.791L318.358 213.984C318.687 209.954 320.333 205.927 322.891 202.838C325.626 199.535 329.54 197.161 334.144 197.246L334.573 197.261C338.992 197.479 342.579 199.783 345.407 202.769C348.314 205.838 350.559 209.768 352.267 213.381C375.768 263.087 376.271 323.387 352.392 372.951C328.516 422.518 280.428 459.999 226.249 469.782C172.071 479.565 113.297 460.887 75.6057 420.705C37.6117 380.201 23.8521 319.691 38.9839 266.327C29.6274 259.932 23.9298 248.508 24.5692 237.172C25.2291 225.479 34.9286 216.681 44.7723 211.72C41.9799 194.14 45.9998 175.569 55.8566 160.739L56.3403 160.023C61.412 152.623 68.8214 145.265 77.0888 139.242C83.9832 134.22 91.5589 130.064 98.9796 127.598C96.6403 126.203 94.4809 124.444 92.7692 122.409C89.8648 118.956 88.1074 114.527 89.2858 109.756C90.2486 105.859 92.9794 102.957 96.2616 101.146C99.5356 99.3403 103.485 98.5394 107.199 98.8925C110.325 99.1898 113.706 99.8851 117.019 100.903C115.15 98.7988 113.483 96.4983 112.224 93.9209L111.932 93.3008C108.894 86.6251 109.291 77.1924 115.686 72.2938ZM131.11 74.6362C126.693 72.7526 121.514 72.8083 118.089 75.4312C113.689 78.8019 112.934 85.9627 115.528 91.6633L115.779 92.1946C118.442 97.6441 123.306 101.813 128.421 106.081C129.221 106.749 129.365 107.924 128.749 108.765C128.133 109.606 126.969 109.823 126.09 109.262C120.758 105.85 113.198 103.432 106.825 102.826C103.89 102.547 100.737 103.191 98.1705 104.606C95.6117 106.018 93.762 108.116 93.1229 110.702C92.3377 113.881 93.4247 117.048 95.7933 119.865C98.1716 122.693 101.707 124.977 105.284 126.201C106.121 126.488 106.666 127.297 106.617 128.181C106.567 129.065 105.936 129.808 105.072 130C96.7274 131.85 87.6526 136.436 79.4158 142.436C71.1854 148.432 63.9204 155.746 59.1484 162.926V162.927C49.5799 177.323 45.8284 195.488 48.9118 212.496C49.0715 213.378 48.6175 214.257 47.8055 214.638C37.9302 219.261 29.0789 227.393 28.5144 237.394C27.9284 247.784 33.4526 258.342 42.3219 263.784C43.0824 264.251 43.4366 265.17 43.185 266.026C27.7841 318.436 41.1485 378.197 78.4883 418.002C115.237 457.179 172.649 475.445 225.547 465.894C278.443 456.343 325.488 419.698 348.831 371.237C372.176 322.78 371.702 263.732 348.695 215.07C347.061 211.615 345.028 208.116 342.538 205.487C340.06 202.87 337.271 201.256 334.07 201.197C330.962 201.139 328.11 202.731 325.934 205.358C323.753 207.993 322.387 211.524 322.258 214.937C322.205 216.351 322.302 217.761 322.515 219.171C322.635 219.965 322.264 220.752 321.574 221.163C320.884 221.574 320.013 221.526 319.372 221.042C317.583 219.692 315.56 218.76 313.413 218.41V218.409C305.547 217.13 297.141 223.357 295.866 231.299C294.594 239.234 300.396 247.742 308.271 249.673C308.825 249.809 309.294 250.179 309.556 250.687C309.817 251.195 309.846 251.791 309.635 252.322C304.461 265.336 293.563 275.449 280.689 281.667C267.815 287.885 252.795 290.295 239.164 287.737C238.24 287.564 237.565 286.762 237.552 285.822C237.539 284.882 238.191 284.063 239.11 283.864C243.747 282.86 247.213 279.84 249.867 275.646C252.538 271.426 254.298 266.146 255.512 260.949C257.809 251.114 253.966 240.059 246.064 233.769C245.328 233.184 245.107 232.16 245.535 231.323C256.208 210.476 252.581 184.775 240.179 164.49C227.874 144.364 204.657 131.347 181.068 131.344C180.33 131.344 179.654 130.932 179.315 130.278C178.975 129.623 179.028 128.834 179.452 128.231C182.95 123.262 186.209 118.493 187.133 113.09C188.055 107.699 185.854 101.885 181.487 99.9962C180.977 99.7753 180.169 99.7927 178.934 100.602C177.716 101.4 176.409 102.779 175.234 104.509C174.07 106.222 173.112 108.167 172.533 109.986C171.938 111.857 171.819 113.36 172.05 114.303C172.278 115.237 171.8 116.201 170.918 116.585C170.035 116.968 169.005 116.66 168.477 115.855C160.965 104.386 152.373 93.6274 142.85 83.764L142.849 83.7627C139.201 79.9832 135.538 76.5252 131.11 74.6362Z" fill="black"/>
<path d="M115.295 220.896C118.023 215.953 116.269 209.779 111.377 207.109C106.485 204.439 100.308 206.282 97.5796 211.225C94.8517 216.169 96.6049 222.342 101.497 225.012C106.389 227.682 112.567 225.839 115.295 220.896Z" fill="black"/>
<path d="M106.643 214.789C107.687 212.895 107.017 210.532 105.143 209.508C103.268 208.485 100.903 209.191 99.858 211.085C98.8135 212.979 99.4839 215.342 101.358 216.366C103.233 217.389 105.598 216.683 106.643 214.789Z" fill="white"/>
<path d="M189.902 227.947C192.631 223.003 190.877 216.83 185.985 214.16C181.093 211.49 174.915 213.332 172.187 218.276C169.458 223.219 171.212 229.393 176.105 232.063C180.997 234.733 187.174 232.89 189.902 227.947Z" fill="black"/>
<path d="M181.251 221.84C182.296 219.946 181.624 217.581 179.751 216.559C177.878 215.536 175.511 216.242 174.466 218.136C173.42 220.03 174.093 222.393 175.967 223.417C177.84 224.439 180.207 223.733 181.251 221.84Z" fill="white"/>
<path d="M131.728 220.413C129.27 220.519 126.561 221.171 125.205 223.224C124.287 224.615 124.18 226.418 124.545 228.044C124.91 229.669 125.702 231.163 126.486 232.634C127.842 235.183 129.231 237.774 131.283 239.804C133.336 241.834 136.195 243.255 139.058 242.894C142.657 242.441 145.433 239.266 146.535 235.81C147.706 232.136 148.724 225.938 145.008 223.718C141.056 221.359 136.318 220.217 131.728 220.413Z" fill="#E65100"/>
<path d="M132.58 219.077C137.129 219.047 141.763 220.249 145.683 222.59C148.117 224.043 148.851 226.724 148.92 229.185C148.989 231.676 148.398 234.302 147.789 236.212C146.594 239.962 143.506 243.663 139.222 244.203C135.825 244.631 132.587 242.947 130.357 240.742H130.356C128.138 238.549 126.663 235.775 125.322 233.256C124.552 231.811 123.67 230.162 123.26 228.334C122.847 226.492 122.926 224.288 124.105 222.501C125.837 219.878 129.145 219.208 131.671 219.1L132.58 219.077ZM131.783 221.73C129.394 221.833 127.283 222.468 126.304 223.952C125.647 224.947 125.514 226.35 125.83 227.758C126.15 229.181 126.85 230.52 127.648 232.017L128.161 232.975C129.355 235.189 130.558 237.237 132.209 238.869H132.208C134.084 240.724 136.563 241.882 138.893 241.589C141.806 241.222 144.272 238.575 145.279 235.413V235.412C145.842 233.648 146.344 231.338 146.287 229.258C146.228 227.147 145.615 225.617 144.333 224.851C140.611 222.629 136.128 221.545 131.783 221.73Z" fill="black"/>
<path d="M129.136 84.0303C133.025 86.1984 136.517 89.0317 139.643 92.2167C142.791 95.3885 145.541 98.9621 147.886 102.777C150.223 106.597 152.154 110.672 153.547 114.919C154.963 119.152 155.896 123.552 156.054 128.002C154.292 123.919 152.582 119.949 150.693 116.084C148.783 112.232 146.747 108.479 144.517 104.839C142.294 101.195 139.876 97.6765 137.315 94.2215C134.734 90.7809 131.974 87.4537 129.136 84.0303Z" fill="black"/>
<path d="M179.83 114.865C180.606 116.554 180.82 118.361 180.748 120.139C180.661 121.92 180.253 123.68 179.572 125.326C178.893 126.974 177.934 128.507 176.737 129.827C175.529 131.135 174.097 132.262 172.351 132.902C172.899 131.131 173.528 129.627 174.126 128.141L175.922 123.814L177.72 119.487C178.351 118.015 178.97 116.504 179.83 114.865Z" fill="black"/>
<path d="M102.119 116.809C104.892 118.551 107.484 120.293 110.151 121.88C112.801 123.484 115.479 124.971 118.215 126.346C120.951 127.72 123.741 128.985 126.608 130.157C129.473 131.352 132.415 132.399 135.465 133.592C132.212 134.044 128.916 133.778 125.706 133.13C122.497 132.461 119.373 131.356 116.438 129.875C113.503 128.396 110.754 126.545 108.306 124.367C105.877 122.172 103.698 119.687 102.119 116.809Z" fill="black"/>
<path d="M46.8687 250.892C49.4451 254.527 52.0031 258.014 54.7547 261.317C57.5248 264.602 60.4332 267.721 63.5418 270.638C66.6438 273.559 69.9342 276.274 73.3813 278.839C76.8455 281.385 80.4797 283.727 84.2627 286.083C79.8751 285.259 75.6587 283.602 71.7269 281.44C67.7766 279.298 64.1174 276.601 60.8362 273.515C57.5604 270.422 54.6454 266.935 52.2692 263.121C49.8732 259.324 47.9619 255.219 46.8687 250.892Z" fill="black"/>
<path d="M84.3074 272.277C85.9315 272.708 87.2829 273.422 88.5527 274.222C89.8107 275.033 90.9619 275.955 92.0196 276.973C93.0786 277.99 94.0415 279.107 94.8977 280.335C95.7433 281.574 96.5047 282.899 96.9894 284.512C95.3613 284.085 94.0086 283.371 92.7401 282.571C91.4822 281.76 90.3309 280.838 89.2772 279.817C88.2221 278.796 87.2579 277.679 86.403 276.452C85.5587 275.211 84.7961 273.886 84.3074 272.277Z" fill="black"/>
<path d="M127.347 287.043C130.321 286.059 133.215 285.297 136.068 284.444C138.923 283.617 141.736 282.762 144.534 281.855C147.33 280.946 150.111 279.991 152.909 278.989C155.72 278.005 158.512 276.931 161.501 275.989C159.404 278.326 156.896 280.194 154.236 281.797C151.565 283.381 148.708 284.659 145.75 285.613C142.791 286.568 139.727 287.207 136.635 287.488C133.541 287.745 130.415 287.704 127.347 287.043Z" fill="black"/>
<path d="M155.117 289.313C157.654 288.033 160.165 287.019 162.655 285.997L170.092 283.038L177.547 280.13C180.064 279.18 182.595 278.212 185.327 277.423C183.486 279.595 181.295 281.356 178.967 282.894C176.63 284.42 174.136 285.696 171.539 286.714C168.945 287.734 166.248 288.501 163.499 288.977C160.746 289.437 157.943 289.644 155.117 289.313Z" fill="black"/>
<path d="M182.076 292.103C186.625 291.596 191.03 291.004 195.361 290.125C199.684 289.221 203.921 288.091 208.063 286.662C212.207 285.242 216.246 283.535 220.213 281.595C224.171 279.63 228.013 277.397 231.918 275.009C229.104 278.631 225.599 281.7 221.76 284.262C217.93 286.849 213.727 288.895 209.343 290.4C204.958 291.897 200.383 292.863 195.772 293.17C191.171 293.501 186.52 293.231 182.076 292.103Z" fill="black"/>
<path d="M341.985 215.004C343.538 217.636 344.381 220.627 344.771 223.664C345.14 226.71 345.004 229.826 344.402 232.848C343.802 235.87 342.728 238.8 341.219 241.47C339.692 244.127 337.762 246.564 335.312 248.394C336.438 245.564 337.513 242.909 338.381 240.205C339.265 237.512 339.978 234.811 340.528 232.075C341.076 229.338 341.457 226.569 341.676 223.745C341.918 220.913 341.942 218.048 341.985 215.004Z" fill="black"/>
<path d="M329.904 237.4C330.108 239.517 329.728 241.584 329.07 243.541C328.395 245.496 327.405 247.34 326.167 248.998C324.93 250.657 323.44 252.128 321.755 253.328C320.064 254.513 318.187 255.461 316.095 255.857C317.27 254.091 318.466 252.584 319.616 251.074L323.004 246.633L326.314 242.132C327.439 240.601 328.546 239.028 329.904 237.4Z" fill="black"/>
<path d="M306.775 245.064C305.236 244.698 303.979 243.75 302.999 242.599C302.025 241.435 301.339 240.034 300.983 238.557C300.625 237.081 300.601 235.521 300.94 234.042C301.289 232.571 301.98 231.153 303.191 230.13C303.55 231.662 303.782 232.925 304.044 234.142C304.296 235.353 304.555 236.493 304.824 237.634C305.097 238.775 305.384 239.909 305.709 241.102C306.028 242.31 306.396 243.54 306.775 245.064Z" fill="black"/>
<path d="M175.928 147.132C179.664 146.922 183.433 147.686 186.974 149.021C190.513 150.379 193.829 152.363 196.738 154.821C199.649 157.276 202.159 160.216 204.087 163.48C205.996 166.748 207.375 170.34 207.784 174.06C205.811 170.896 203.808 167.959 201.541 165.261C199.294 162.557 196.839 160.084 194.188 157.839C191.536 155.595 188.688 153.585 185.646 151.82C182.609 150.03 179.378 148.546 175.928 147.132Z" fill="#FFE79F"/>
<path d="M218.3 170.071C219.933 170.837 221.22 172.017 222.297 173.346C223.362 174.685 224.194 176.202 224.772 177.807C225.353 179.412 225.677 181.111 225.709 182.822C225.726 184.532 225.484 186.262 224.705 187.893C223.837 186.316 223.242 184.846 222.657 183.404C222.087 181.963 221.56 180.558 221.055 179.143C220.549 177.728 220.059 176.31 219.583 174.834C219.115 173.348 218.638 171.838 218.3 170.071Z" fill="#FFE79F"/>
<path d="M236.879 187.534C238.623 190.317 239.679 193.473 240.298 196.705C240.895 199.944 241.002 203.283 240.642 206.569C240.284 209.855 239.453 213.092 238.166 216.124C236.86 219.144 235.14 221.993 232.827 224.329C233.699 221.173 234.559 218.184 235.21 215.166C235.879 212.161 236.378 209.159 236.716 206.136C237.05 203.114 237.215 200.074 237.216 196.993C237.241 193.907 237.049 190.803 236.879 187.534Z" fill="#FFE79F"/>
<path d="M223.526 240.309C225.26 240.427 226.815 241.065 228.219 241.918C229.616 242.785 230.849 243.903 231.867 245.189C232.886 246.473 233.687 247.933 234.206 249.492C234.712 251.054 234.97 252.718 234.679 254.433C233.412 253.25 232.436 252.101 231.478 250.979C230.534 249.853 229.642 248.752 228.766 247.637C227.889 246.523 227.023 245.4 226.148 244.221C225.278 243.025 224.386 241.812 223.526 240.309Z" fill="#FFE79F"/>
<path d="M242.856 249.229C243.757 249.69 244.268 250.212 244.665 250.753C245.044 251.295 245.271 251.863 245.365 252.452C245.462 253.039 245.421 253.649 245.227 254.283C245.019 254.919 244.691 255.573 243.972 256.29C243.066 255.83 242.553 255.307 242.158 254.767C241.779 254.223 241.552 253.657 241.463 253.068C241.372 252.479 241.413 251.87 241.606 251.236C241.814 250.598 242.141 249.944 242.856 249.229Z" fill="#FFE79F"/>
<path d="M44.1369 242.847C43.8616 240.717 44.3095 238.575 45.1367 236.612C45.9771 234.648 47.2297 232.856 48.7669 231.359C50.3028 229.862 52.1324 228.66 54.1187 227.877C56.105 227.106 58.26 226.72 60.382 227.061C58.6565 228.322 57.1021 229.417 55.6414 230.585C54.1806 231.74 52.8212 232.935 51.5198 234.193C50.2211 235.453 48.9882 236.78 47.7909 238.206C46.5803 239.633 45.4423 241.155 44.1369 242.847Z" fill="#FFE79F"/>
<path d="M61.7743 208.206C59.8261 206.366 58.4628 203.976 57.5698 201.436C56.6859 198.886 56.2908 196.157 56.379 193.446C56.4646 190.735 57.0403 188.037 58.0901 185.551C59.1478 183.074 60.6678 180.78 62.7372 179.075C62.0641 181.658 61.47 184.046 61.0656 186.445C60.652 188.833 60.411 191.201 60.328 193.576C60.2476 195.951 60.3333 198.331 60.5875 200.743C60.8312 203.163 61.2685 205.586 61.7743 208.206Z" fill="#FFE79F"/>
<path d="M68.8265 180.075C68.3365 178.379 68.4194 176.656 68.779 175.012C69.1544 173.369 69.8407 171.802 70.7719 170.399C71.7019 168.995 72.8834 167.755 74.2533 166.775C75.6298 165.809 77.1894 165.066 78.9465 164.868C78.1233 166.424 77.2789 167.696 76.4689 168.954L74.061 172.587L71.6347 176.209C70.7865 177.443 69.9382 178.713 68.8265 180.075Z" fill="#FFE79F"/>
<path d="M121.681 119.873C123.371 119.404 125.024 119.4 126.636 119.584C128.245 119.784 129.81 120.207 131.297 120.818C132.785 121.43 134.193 122.234 135.474 123.229C136.747 124.235 137.916 125.405 138.779 126.934C137.031 126.793 135.515 126.41 134.039 125.984C132.571 125.547 131.167 125.043 129.789 124.47C128.411 123.898 127.06 123.264 125.711 122.539C124.365 121.797 123.019 121 121.681 119.873Z" fill="#FFE79F"/>
<path d="M162.183 128.426C163.12 128.967 163.607 129.767 163.87 130.595C164.119 131.428 164.113 132.309 163.884 133.124C163.657 133.941 163.201 134.694 162.553 135.275C161.897 135.844 161.061 136.271 159.975 136.238C159.833 135.169 159.812 134.443 159.828 133.783C159.852 133.133 159.928 132.582 160.082 132.049C160.234 131.517 160.458 131.006 160.778 130.44C161.11 129.869 161.507 129.262 162.183 128.426Z" fill="#FFE79F"/>
<path d="M103.015 151.606C104.743 150.138 106.711 149.125 108.751 148.338C110.798 147.566 112.934 147.053 115.101 146.787C117.268 146.519 119.466 146.506 121.639 146.764C123.809 147.037 125.963 147.549 127.993 148.566C125.814 149.189 123.739 149.537 121.685 149.872C119.631 150.192 117.608 150.466 115.579 150.709C113.551 150.954 111.52 151.174 109.45 151.356C107.375 151.521 105.276 151.683 103.015 151.606Z" fill="#FFE79F"/>
<path d="M332.749 209.856C334.252 210.966 335.291 212.513 336.009 214.18C336.715 215.854 337.079 217.675 337.097 219.496C337.118 221.317 336.79 223.146 336.116 224.834C335.431 226.514 334.42 228.081 332.935 229.218C332.939 227.358 333.04 225.743 333.083 224.157C333.137 222.579 333.157 221.058 333.147 219.534C333.134 218.01 333.085 216.487 332.999 214.912C332.928 213.326 332.794 211.714 332.749 209.856Z" fill="#FFE79F"/>
<path d="M324.736 225.08C325.383 226.337 325.512 227.65 325.408 228.918C325.289 230.187 324.902 231.414 324.299 232.524C323.698 233.634 322.875 234.626 321.875 235.413C320.866 236.189 319.691 236.793 318.282 236.927C318.605 235.554 319.024 234.491 319.448 233.475C319.88 232.468 320.332 231.54 320.829 230.635C321.325 229.728 321.861 228.845 322.471 227.936C323.099 227.026 323.764 226.097 324.736 225.08Z" fill="#FFE79F"/>
<path d="M310.766 225.045C311.534 226.287 311.908 227.513 312.164 228.734C312.404 229.954 312.489 231.169 312.442 232.378C312.396 233.587 312.21 234.79 311.871 235.986C311.517 237.182 311.042 238.372 310.17 239.547C309.396 238.305 309.021 237.079 308.767 235.858C308.527 234.638 308.441 233.424 308.494 232.214C308.545 231.007 308.73 229.803 309.07 228.607C309.425 227.411 309.9 226.22 310.766 225.045Z" fill="#FFE79F"/>
<path d="M309.261 263.084C308.348 267.19 306.373 271.065 303.789 274.462C301.222 277.885 297.995 280.824 294.393 283.165C290.788 285.5 286.785 287.244 282.612 288.19C278.456 289.161 274.111 289.378 269.991 288.528C274.108 287.727 277.994 286.675 281.713 285.241C285.417 283.781 288.941 281.992 292.246 279.849C295.555 277.713 298.628 275.226 301.475 272.443C304.305 269.636 306.853 266.517 309.261 263.084Z" fill="#FFE79F"/>
<path d="M238.006 290.972C238.935 290.286 239.804 289.989 240.657 289.809C241.506 289.646 242.332 289.634 243.138 289.755C243.944 289.875 244.729 290.13 245.491 290.54C246.251 290.964 246.992 291.508 247.673 292.443C246.743 293.134 245.874 293.433 245.023 293.612C244.173 293.775 243.348 293.787 242.543 293.66C241.738 293.535 240.953 293.28 240.19 292.87C239.43 292.446 238.689 291.903 238.006 290.972Z" fill="#FFE79F"/>
<path d="M348.234 230.975C349.439 232.592 350.062 234.523 350.323 236.484C350.57 238.451 350.425 240.47 349.925 242.396C349.429 244.322 348.574 246.158 347.402 247.756C346.221 249.344 344.737 250.727 342.892 251.551L344.653 246.305C345.197 244.652 345.672 243.035 346.1 241.403C346.526 239.77 346.897 238.124 347.225 236.415L348.234 230.975Z" fill="#FFE79F"/>
<path d="M353.687 245.521C354.203 246.627 354.344 247.617 354.372 248.575C354.384 249.527 354.248 250.434 353.985 251.302C353.723 252.17 353.327 252.997 352.786 253.779C352.229 254.557 351.557 255.299 350.505 255.926C349.983 254.819 349.841 253.827 349.814 252.87C349.803 251.919 349.938 251.012 350.207 250.147C350.474 249.28 350.868 248.453 351.411 247.67C351.969 246.892 352.64 246.149 353.687 245.521Z" fill="#FFE79F"/>
<path d="M38.1106 233.979C37.7721 236.158 37.5534 238.096 37.5376 239.997C37.5126 241.888 37.6746 243.709 38.0329 245.476C38.3951 247.241 38.9549 248.981 39.7136 250.714C40.4684 252.456 41.422 254.157 42.5785 256.038C40.4275 255.477 38.5466 254.105 37.0937 252.384C35.6435 250.65 34.6147 248.524 34.1616 246.261C33.7032 243.998 33.8231 241.641 34.4857 239.48C35.1548 237.328 36.3521 235.334 38.1106 233.979Z" fill="#FFE79F"/>
<path d="M375.399 267.984L351.327 275.03L349.858 286.781L311.484 288.315L310.237 317.003L279.808 325.301L273.868 317.263L214.093 312.836L206.661 322.333L174.757 306.381L154.675 331.668L136.782 313.776L92.1873 312.337L88.2989 330.392L57.9308 327.161L54.0055 295.2L8.47383 270.1C4.24429 289.19 1.97607 309.254 1.97607 329.961C1.97607 457.204 87.1305 510.024 192.173 510.024C297.216 510.024 382.368 457.204 382.368 329.961C382.368 308.488 379.935 287.705 375.399 267.984Z" fill="white"/>
<path d="M310.304 466.277C322.962 453.619 338.434 440.961 338.434 422.675C321.555 442.366 300.458 464.871 272.329 462.057C289.206 455.024 314.524 439.553 307.492 424.081C284.987 372.04 217.475 376.26 168.248 383.292C138.711 387.511 97.9222 397.357 89.4829 432.52C85.2639 455.024 103.548 474.715 124.646 480.341C102.141 476.122 81.0436 466.276 64.1663 450.804C64.1663 460.645 67.0457 469.527 71.3898 478.012C104.238 499.949 146.308 510.022 192.172 510.022C263.965 510.022 326.458 485.339 358.834 429.094C345.123 444.034 329.062 456.734 310.304 466.277Z" fill="#E2DAF1"/>
<path d="M380.392 329.962C380.392 309.379 378.14 289.438 373.933 270.472L353.125 276.563L351.819 287.027C351.699 287.986 350.903 288.717 349.937 288.756L313.378 290.217L312.21 317.09C312.173 317.948 311.585 318.684 310.757 318.91L280.327 327.208C279.541 327.422 278.703 327.131 278.219 326.476L272.818 319.167L214.998 314.885L208.217 323.552C207.638 324.292 206.618 324.521 205.778 324.101L175.307 308.865L156.222 332.899C155.872 333.339 155.35 333.61 154.788 333.642C154.226 333.674 153.676 333.464 153.278 333.066L135.938 315.726L93.7709 314.365L90.2296 330.808C90.0169 331.796 89.0937 332.464 88.0891 332.357L57.7215 329.127C56.8076 329.03 56.0815 328.314 55.9695 327.402L52.1658 296.444L9.84428 273.113C6.00527 291.287 3.95163 310.331 3.9516 329.962C3.9516 393.109 25.06 437.53 58.9589 466.201C92.9122 494.917 139.953 508.049 192.173 508.049C244.393 508.049 291.433 494.917 325.386 466.201C359.284 437.53 380.392 393.109 380.392 329.962ZM384.344 329.962C384.344 394.057 362.875 439.669 327.937 469.219C293.053 498.722 244.995 512.001 192.173 512.001C139.35 512 91.2913 498.722 56.4068 469.219C21.4681 439.669 0 394.057 0 329.962C2.3484e-05 309.11 2.28437 288.903 6.54485 269.673L6.60788 269.45C6.78495 268.942 7.16364 268.525 7.66009 268.3C8.22735 268.044 8.88235 268.069 9.42751 268.37L54.9597 293.471L55.1591 293.597C55.6036 293.917 55.8993 294.41 55.9669 294.961L59.6998 325.363L86.7398 328.239L90.2553 311.922L90.3003 311.75C90.5618 310.909 91.3559 310.335 92.2504 310.363L136.846 311.801L137.033 311.817C137.465 311.872 137.868 312.069 138.179 312.379L154.505 328.705L173.209 305.152C173.791 304.421 174.805 304.197 175.641 304.615L206.1 319.844L212.536 311.62L212.7 311.436C213.103 311.035 213.663 310.824 214.238 310.866L274.013 315.294C274.587 315.336 275.114 315.627 275.456 316.09L280.592 323.039L308.324 315.477L309.51 288.231L309.527 288.04C309.658 287.104 310.443 286.381 311.405 286.342L348.104 284.875L349.366 274.786L349.389 274.641C349.533 273.925 350.063 273.342 350.772 273.134L374.843 266.089C375.365 265.936 375.927 266.006 376.397 266.281C376.866 266.556 377.202 267.013 377.324 267.543C381.894 287.409 384.344 308.34 384.344 329.962Z" fill="black"/>
<path d="M154.101 329.334C155.111 328.921 156.265 329.405 156.678 330.416C160.766 340.423 164.854 350.43 168.943 360.437C172.928 370.19 176.913 379.944 180.898 389.697C186.03 391.84 191.066 393.747 196.139 395.666C201.448 397.674 206.797 399.697 212.267 402.001C213.272 402.425 213.743 403.584 213.32 404.589C212.896 405.595 211.738 406.066 210.732 405.643C205.34 403.371 200.059 401.375 194.74 399.363C189.431 397.355 184.083 395.332 178.614 393.028C178.131 392.825 177.749 392.438 177.551 391.954C173.463 381.946 169.374 371.939 165.286 361.932C161.197 351.925 157.108 341.918 153.019 331.91C152.607 330.9 153.091 329.747 154.101 329.334Z" fill="black"/>
<path d="M193.612 394.906C194.7 394.984 195.52 395.929 195.443 397.017L191.566 451.509C191.488 452.597 190.543 453.417 189.455 453.339C188.366 453.262 187.547 452.317 187.624 451.228C188.278 442.032 188.921 433.007 189.563 423.983C190.205 414.958 190.846 405.933 191.5 396.737C191.578 395.648 192.524 394.829 193.612 394.906Z" fill="black"/>
<path d="M200.566 376.193C201.58 375.791 202.728 376.288 203.129 377.303C213.12 402.551 223.111 427.8 233.101 453.048C233.502 454.063 233.005 455.211 231.991 455.612C230.976 456.013 229.828 455.517 229.427 454.502C219.437 429.254 209.446 404.005 199.456 378.756C199.054 377.742 199.551 376.594 200.566 376.193Z" fill="black"/>
<path d="M207.48 307.822C207.679 330.54 218.351 352.956 235.858 367.435C253.851 382.315 278.722 388.528 301.592 383.756C302.976 383.468 304.258 382.67 304.958 381.442C306.837 378.15 303.096 375.031 299.772 373.889C296.628 372.809 292.758 371.692 291.935 368.471C302.161 367.299 312.149 364.101 321.153 359.118C324.881 357.055 328.715 354.327 329.822 350.214C330.927 346.099 327.426 340.825 323.299 341.884C324.658 338.887 326.019 335.889 327.378 332.893C329.722 327.728 325.817 321.955 320.148 322.119C306.164 322.524 292.056 318.986 280.005 311.863" fill="#FFC12E"/>
<path d="M207.464 305.848C208.555 305.838 209.447 306.716 209.456 307.807C209.65 329.941 220.059 351.806 237.116 365.913H237.117C254.65 380.413 278.91 386.472 301.188 381.823L301.533 381.735C302.313 381.495 302.921 381.026 303.242 380.464L303.325 380.307C303.494 379.949 303.512 379.652 303.464 379.383C303.402 379.038 303.205 378.611 302.801 378.128C301.972 377.136 300.543 376.244 299.13 375.758V375.757C297.651 375.249 295.679 374.635 294.021 373.709C292.324 372.762 290.623 371.314 290.022 368.961C289.88 368.409 289.985 367.822 290.308 367.352C290.632 366.882 291.143 366.575 291.711 366.51C301.679 365.367 311.418 362.249 320.196 357.391C323.921 355.33 327.042 352.945 327.914 349.701C328.285 348.319 327.89 346.582 326.932 345.281C325.979 343.988 324.819 343.534 323.79 343.798C323.054 343.987 322.275 343.737 321.786 343.155C321.298 342.573 321.185 341.761 321.499 341.069L325.58 332.077C327.308 328.268 324.441 323.973 320.205 324.096C305.857 324.51 291.381 320.882 279 313.566C278.061 313.011 277.749 311.799 278.304 310.859C278.86 309.92 280.071 309.608 281.011 310.163C292.733 317.091 306.47 320.539 320.091 320.145C327.194 319.939 332.135 327.19 329.177 333.71C328.498 335.208 327.819 336.707 327.139 338.205C326.856 338.827 326.573 339.45 326.291 340.072C327.865 340.582 329.186 341.679 330.114 342.938C331.661 345.038 332.465 347.996 331.731 350.728H331.73C330.389 355.711 325.841 358.784 322.11 360.849C313.859 365.415 304.803 368.516 295.487 369.981C295.631 370.074 295.783 370.168 295.946 370.259C296.897 370.79 297.998 371.195 299.192 371.605L300.415 372.022L300.775 372.152C302.585 372.835 304.517 374.021 305.832 375.592C306.544 376.443 307.137 377.485 307.352 378.686C307.574 379.926 307.368 381.207 306.674 382.423C305.64 384.235 303.82 385.311 301.996 385.691C278.536 390.587 253.052 384.22 234.599 368.959C216.643 354.109 205.709 331.141 205.505 307.84C205.495 306.749 206.373 305.857 207.464 305.848Z" fill="black"/>
<path d="M281.635 375.039C276.816 370.41 271.998 365.782 267.18 361.153C284.022 362.287 301.096 359.827 316.932 353.982C310.563 352.251 304.194 350.521 297.826 348.791C306.122 346.294 313.711 341.491 319.52 335.063C300.464 334.87 281.499 329.081 265.585 318.6C268.795 327.738 274.891 335.838 282.782 341.453C269.387 339.257 256.512 333.963 245.447 326.102C247.136 336.328 253.43 345.704 262.256 351.137C259.693 349.559 254.643 349.513 251.657 348.495C248.078 347.274 244.606 345.744 241.286 343.932C238.154 342.222 227.884 332.648 228.158 341.807C228.321 347.305 236.983 354.151 240.836 357.481C246.159 362.08 252.131 365.929 258.526 368.86C265.809 372.199 273.646 374.347 281.635 375.039Z" fill="#FFD54F"/>
<path d="M275.772 327.796C277.9 328.759 279.8 329.757 281.712 330.678C283.612 331.608 285.491 332.48 287.392 333.303C289.294 334.125 291.213 334.901 293.19 335.653C295.169 336.42 297.195 337.127 299.351 338.028C297.126 338.772 294.788 338.896 292.495 338.681C290.2 338.452 287.939 337.85 285.819 336.927C283.7 336.005 281.716 334.765 279.981 333.245C278.259 331.716 276.75 329.926 275.772 327.796Z" fill="#FFE79F"/>
<path d="M254.516 335.7C257.142 337.083 259.574 338.481 262.061 339.735C264.531 341.006 267.011 342.172 269.535 343.237C272.058 344.301 274.622 345.268 277.255 346.156C279.887 347.065 282.582 347.84 285.403 348.766C282.514 349.495 279.519 349.528 276.575 349.187C273.633 348.825 270.733 348.037 267.996 346.875C265.258 345.715 262.675 344.184 260.364 342.324C258.072 340.447 256.008 338.277 254.516 335.7Z" fill="#FFE79F"/>
<path d="M283.906 343.717C285.772 343.672 287.405 343.75 289.011 343.778C290.608 343.819 292.151 343.836 293.696 343.829C295.241 343.819 296.784 343.79 298.38 343.736C299.985 343.694 301.617 343.605 303.486 343.64C302.307 345.102 300.729 346.091 299.047 346.771C297.356 347.438 295.534 347.776 293.714 347.779C291.893 347.785 290.069 347.463 288.372 346.807C286.682 346.14 285.098 345.165 283.906 343.717Z" fill="#FFE79F"/>
<path d="M271.359 354.381C273.496 354.194 275.461 354.223 277.404 354.241L283.132 354.389L288.857 354.617C290.796 354.726 292.758 354.829 294.879 355.163C293.14 356.43 291.18 357.198 289.169 357.708C287.154 358.203 285.071 358.409 283.001 358.336C280.929 358.265 278.866 357.921 276.889 357.293C274.916 356.652 273.011 355.756 271.359 354.381Z" fill="#FFE79F"/>
<path d="M238.188 347.265C240.611 349.439 242.917 351.48 245.364 353.307C247.792 355.147 250.308 356.801 252.925 358.276C255.544 359.749 258.258 361.048 261.089 362.174C263.918 363.321 266.857 364.243 269.97 365.197C266.778 365.9 263.447 365.773 260.221 365.158C256.994 364.52 253.86 363.345 250.984 361.717C248.107 360.092 245.48 358.018 243.267 355.585C241.073 353.139 239.239 350.357 238.188 347.265Z" fill="#FFE79F"/>
</svg>
